<?xml version="1.0" standalone="no"?>
<!DOCTYPE svg PUBLIC "-//W3C//DTD SVG 20010904//EN"
 "http://www.w3.org/TR/2001/REC-SVG-20010904/DTD/svg10.dtd">
<svg version="1.0" xmlns="http://www.w3.org/2000/svg"
 width="1280.000000pt" height="1280.000000pt" viewBox="0 0 1280.000000 1280.000000"
 preserveAspectRatio="xMidYMid meet">

<g transform="translate(0.000000,1280.000000) scale(0.100000,-0.100000)"
fill="#000000" stroke="none">
<path d="M2390 7080 l0 -4070 4035 0 4035 0 0 4070 0 4070 -4035 0 -4035 0 0
-4070z m3498 3123 c-10 -2 -26 -2 -35 0 -10 3 -2 5 17 5 19 0 27 -2 18 -5z
m-55 -20 c-7 -2 -19 -2 -25 0 -7 3 -2 5 12 5 14 0 19 -2 13 -5z m367 -43 c18
-12 2 -12 -25 0 -13 6 -15 9 -5 9 8 0 22 -4 30 -9z m70 -20 c8 -5 11 -10 5
-10 -5 0 -17 5 -25 10 -8 5 -10 10 -5 10 6 0 17 -5 25 -10z m165 -60 c13 -6
15 -9 5 -9 -8 0 -22 4 -30 9 -18 12 -2 12 25 0z m-2268 -86 c-4 -4 -17 -2 -29
4 l-23 12 24 -6 c18 -5 22 -3 16 7 -6 11 -5 12 5 2 8 -7 11 -16 7 -19z m1750
0 c-3 -3 -12 -4 -19 -1 -8 3 -5 6 6 6 11 1 17 -2 13 -5z m-110 -10 c-3 -3 -12
-4 -19 -1 -8 3 -5 6 6 6 11 1 17 -2 13 -5z m-1791 -64 c0 -12 -4 -16 -9 -11
-5 5 -6 14 -3 20 10 15 12 14 12 -9z m2111 -6 c-3 -3 -12 -4 -19 -1 -8 3 -5 6
6 6 11 1 17 -2 13 -5z m633 -24 c0 -15 -5 -12 -26 11 -19 22 -19 22 4 10 12
-6 22 -16 22 -21z m-3253 -19 c0 -11 -5 -18 -9 -15 -4 3 -5 11 -1 19 7 21 12
19 10 -4z m3 -51 c-8 -5 -9 -9 -2 -11 15 -6 40 -106 43 -176 l3 -58 -132 -3
-132 -3 0 130 0 130 78 3 c95 4 159 -2 142 -12z m450 10 c0 -5 -4 -10 -10 -10
-5 0 -10 5 -10 10 0 6 5 10 10 10 6 0 10 -4 10 -10z m2160 -10 c63 -6 136 -12
162 -15 25 -2 57 -10 69 -17 100 -56 242 -184 295 -264 19 -28 34 -54 34 -58
0 -4 9 -16 20 -28 11 -12 18 -23 16 -26 -3 -2 -40 9 -83 26 -169 65 -377 106
-613 123 -212 14 -1332 8 -1380 -9 -77 -26 -144 -76 -177 -131 -58 -97 -58
-95 -58 -931 l0 -765 -180 2 c-99 1 -186 2 -192 2 -10 1 -13 160 -13 759 -1
590 -4 769 -14 812 -13 54 -48 134 -63 143 -5 3 -7 61 -7 130 1 120 16 219 37
245 12 16 1969 17 2147 2z m723 -17 c-4 -10 -9 -11 -19 -2 -18 15 -18 15 5 15
11 0 17 -5 14 -13z m297 -281 c133 -85 297 -249 347 -346 9 -17 19 -33 23 -36
15 -10 61 -112 90 -201 98 -294 73 -650 -63 -914 -121 -233 -353 -450 -648
-608 l-86 -46 -101 49 c-55 28 -102 50 -105 50 -3 0 -18 5 -34 12 -15 7 -48
12 -72 12 -27 1 -45 6 -47 14 -1 7 0 8 3 2 10 -21 54 -9 147 40 267 138 467
324 571 530 129 256 147 591 46 838 -14 33 -21 81 -25 162 -5 119 -20 202 -54
305 -23 70 -62 154 -79 173 -32 34 -6 23 87 -36z m-383 -184 c-3 -8 -6 -5 -6
6 -1 11 2 17 5 13 3 -3 4 -12 1 -19z m60 -300 c-3 -8 -6 -5 -6 6 -1 11 2 17 5
13 3 -3 4 -12 1 -19z m350 -260 c-3 -8 -6 -5 -6 6 -1 11 2 17 5 13 3 -3 4 -12
1 -19z m-410 -160 c-3 -8 -6 -5 -6 6 -1 11 2 17 5 13 3 -3 4 -12 1 -19z m313
-42 c0 -3 -4 -8 -10 -11 -5 -3 -10 -1 -10 4 0 6 5 11 10 11 6 0 10 -2 10 -4z
m20 -51 c0 -5 -5 -3 -10 5 -5 8 -10 20 -10 25 0 6 5 3 10 -5 5 -8 10 -19 10
-25z m-383 -27 c-3 -8 -6 -5 -6 6 -1 11 2 17 5 13 3 -3 4 -12 1 -19z m-43 -66
c3 -5 -1 -9 -9 -9 -8 0 -12 4 -9 9 3 4 7 8 9 8 2 0 6 -4 9 -8z m354 -37 c-3
-3 -9 2 -12 12 -6 14 -5 15 5 6 7 -7 10 -15 7 -18z m-378 -5 c0 -5 -2 -10 -4
-10 -3 0 -8 5 -11 10 -3 6 -1 10 4 10 6 0 11 -4 11 -10z m-59 -73 c-10 -9 -11
-8 -5 6 3 10 9 15 12 12 3 -3 0 -11 -7 -18z m-76 -77 c-10 -11 -22 -20 -26
-20 -5 0 2 10 14 23 27 28 38 25 12 -3z m-31 -52 c-2 -3 -13 -6 -24 -5 -24 2
-18 13 9 13 11 0 18 -4 15 -8z m-154 -93 c-7 -8 -17 -15 -23 -15 -6 0 -2 7 9
15 25 19 30 19 14 0z m-210 -125 c0 -5 -5 -10 -11 -10 -5 0 -7 5 -4 10 3 6 8
10 11 10 2 0 4 -4 4 -10z m390 -50 c8 -5 11 -10 5 -10 -5 0 -17 5 -25 10 -8 5
-10 10 -5 10 6 0 17 -5 25 -10z m-40 -10 c0 -5 -4 -10 -10 -10 -5 0 -10 5 -10
10 0 6 5 10 10 10 6 0 10 -4 10 -10z m-713 -76 c-3 -3 -12 -4 -19 -1 -8 3 -5
6 6 6 11 1 17 -2 13 -5z m-399 -91 c-10 -2 -26 -2 -35 0 -10 3 -2 5 17 5 19 0
27 -2 18 -5z m-275 -20 c-7 -2 -19 -2 -25 0 -7 3 -2 5 12 5 14 0 19 -2 13 -5z
m882 -43 c13 -6 15 -9 5 -9 -8 0 -22 4 -30 9 -18 12 -2 12 25 0z m130 -80 c-3
-5 -1 -10 6 -10 7 0 10 -2 7 -5 -3 -3 -13 -2 -22 1 -14 5 -15 9 -4 15 17 11
20 11 13 -1z m-1680 -227 l0 -88 585 1 c603 0 656 3 913 45 124 21 130 21 195
5 37 -10 76 -21 87 -25 11 -5 38 -14 60 -20 63 -20 150 -55 153 -63 2 -5 10
-8 18 -8 8 0 13 -6 12 -12 -2 -8 9 -14 27 -16 36 -3 105 -32 105 -44 0 -4 7
-8 14 -8 67 0 368 -296 383 -377 2 -7 -29 2 -73 22 -146 67 -414 142 -644 181
-277 46 -283 47 -1077 51 l-762 5 2 -1080 c1 -719 -1 -1078 -8 -1073 -5 4 -59
9 -120 9 -63 1 -111 6 -113 12 -2 5 -11 10 -21 10 -9 0 -40 12 -69 26 l-52 26
0 1254 0 1254 193 0 192 0 0 -87z m1272 71 c-3 -3 -12 -4 -19 -1 -8 3 -5 6 6
6 11 1 17 -2 13 -5z m1153 -114 c8 -5 11 -10 5 -10 -5 0 -17 5 -25 10 -8 5
-10 10 -5 10 6 0 17 -5 25 -10z m148 -93 c14 4 14 3 2 -5 -16 -12 -30 -7 -29
11 0 9 2 9 5 0 3 -7 13 -9 22 -6z m119 -119 c-3 -8 -6 -5 -6 6 -1 11 2 17 5
13 3 -3 4 -12 1 -19z m77 -54 c3 -8 2 -12 -4 -9 -6 3 -10 10 -10 16 0 14 7 11
14 -7z m86 -149 c11 -13 10 -14 -4 -9 -9 3 -16 10 -16 15 0 13 6 11 20 -6z
m104 -47 c209 -142 342 -288 442 -485 112 -223 153 -472 124 -763 -11 -116
-54 -315 -83 -384 -163 -395 -410 -636 -852 -833 -150 -67 -402 -137 -617
-173 -324 -54 -294 -53 -1740 -57 l-1348 -4 0 131 0 130 183 0 c207 0 288 10
363 46 53 25 134 104 134 130 0 8 5 14 10 14 6 0 10 -3 10 -7 0 -5 82 -7 182
-5 242 4 256 2 288 -50 29 -47 75 -79 151 -104 48 -16 107 -19 564 -22 293 -2
584 1 685 7 484 30 854 136 1145 329 382 253 582 672 544 1139 -9 112 -46 279
-68 308 -5 5 -9 37 -10 70 -2 104 -32 277 -61 360 -60 170 -78 205 -99 198
-11 -4 -10 -1 4 10 19 16 19 16 1 17 -11 0 -16 3 -13 7 4 3 2 12 -4 20 -20 24
2 14 65 -29z m-277 -380 c-3 -7 -5 -2 -5 12 0 14 2 19 5 13 2 -7 2 -19 0 -25z
m7 -383 c5 -22 4 -26 -4 -15 -5 8 -10 24 -10 34 0 26 6 18 14 -19z m363 -17
c-3 -8 -6 -5 -6 6 -1 11 2 17 5 13 3 -3 4 -12 1 -19z m-367 -83 c0 -8 -4 -15
-10 -15 -5 0 -7 7 -4 15 4 8 8 15 10 15 2 0 4 -7 4 -15z m1 -68 c-10 -9 -11
-8 -5 6 3 10 9 15 12 12 3 -3 0 -11 -7 -18z m299 -81 c0 -3 -4 -8 -10 -11 -5
-3 -10 -1 -10 4 0 6 5 11 10 11 6 0 10 -2 10 -4z m-7 -81 c-3 -9 -8 -14 -10
-11 -3 3 -2 9 2 15 9 16 15 13 8 -4z m887 1 c0 -3 -4 -8 -10 -11 -5 -3 -10 -1
-10 4 0 6 5 11 10 11 6 0 10 -2 10 -4z m1700 0 c0 -3 -4 -8 -10 -11 -5 -3 -10
-1 -10 4 0 6 5 11 10 11 6 0 10 -2 10 -4z m-1661 -71 c0 -5 -4 -3 -9 5 -5 8
-9 22 -9 30 0 16 17 -16 18 -35z m1681 41 c0 -3 -4 -8 -10 -11 -5 -3 -10 -1
-10 4 0 6 5 11 10 11 6 0 10 -2 10 -4z m-3049 -119 c-10 -9 -11 -8 -5 6 3 10
9 15 12 12 3 -3 0 -11 -7 -18z m2646 4 c0 -11 -5 -18 -9 -15 -4 3 -5 11 -1 19
7 21 12 19 10 -4z m223 -21 c0 -11 -2 -20 -4 -20 -2 0 -6 9 -9 20 -3 11 -1 20
4 20 5 0 9 -9 9 -20z m-1473 -12 c-3 -8 -6 -5 -6 6 -1 11 2 17 5 13 3 -3 4
-12 1 -19z m-1403 -44 c3 -8 2 -12 -4 -9 -6 3 -10 10 -10 16 0 14 7 11 14 -7z
m-34 2 c0 -2 -8 -10 -17 -17 -16 -13 -17 -12 -4 4 13 16 21 21 21 13z m2660
-10 c0 -2 -8 -10 -17 -17 -16 -13 -17 -12 -4 4 13 16 21 21 21 13z m-2257 -26
c-3 -11 -10 -23 -16 -27 -5 -3 -8 -2 -5 3 3 5 8 17 11 27 9 24 16 22 10 -3z
m1125 -35 c-3 -3 -9 2 -12 12 -6 14 -5 15 5 6 7 -7 10 -15 7 -18z m2 -30 c-7
-9 -15 -13 -19 -10 -3 3 1 10 9 15 21 14 24 12 10 -5z m-1605 -15 c-3 -5 -12
-10 -18 -10 -7 0 -6 4 3 10 19 12 23 12 15 0z m1633 -31 c-3 -8 -7 -3 -11 10
-4 17 -3 21 5 13 5 -5 8 -16 6 -23z m-1698 -34 c0 -8 -4 -15 -10 -15 -5 0 -7
7 -4 15 4 8 8 15 10 15 2 0 4 -7 4 -15z m2710 -19 c0 -3 -4 -8 -10 -11 -5 -3
-10 -1 -10 4 0 6 5 11 10 11 6 0 10 -2 10 -4z m28 -21 c-3 -3 -9 2 -12 12 -6
14 -5 15 5 6 7 -7 10 -15 7 -18z m-28 -29 c0 -3 -4 -8 -10 -11 -5 -3 -10 -1
-10 4 0 6 5 11 10 11 6 0 10 -2 10 -4z m-925 -63 c4 -14 2 -23 -4 -23 -6 0
-11 6 -11 14 0 8 -3 23 -6 33 -5 12 -4 15 3 8 6 -5 14 -20 18 -32z m866 -6
c-10 -9 -11 -8 -5 6 3 10 9 15 12 12 3 -3 0 -11 -7 -18z m-2331 -32 c0 -2 -9
-3 -19 -2 -11 0 -18 5 -15 9 4 6 34 0 34 -7z m-3143 -57 c-3 -8 -6 -5 -6 6 -1
11 2 17 5 13 3 -3 4 -12 1 -19z m3047 -23 c-22 -17 -34 -19 -34 -6 0 5 8 12
18 14 32 9 36 7 16 -8z m2683 -47 c-2 -13 -4 -5 -4 17 -1 22 1 32 4 23 2 -10
2 -28 0 -40z m-297 7 c0 -5 -5 -3 -10 5 -5 8 -10 20 -10 25 0 6 5 3 10 -5 5
-8 10 -19 10 -25z m-769 2 c-10 -9 -11 -8 -5 6 3 10 9 15 12 12 3 -3 0 -11 -7
-18z m735 -25 c-17 -16 -18 -16 -5 5 7 12 15 20 18 17 3 -2 -3 -12 -13 -22z
m-2486 -38 c0 -8 -19 -13 -24 -6 -3 5 1 9 9 9 8 0 15 -2 15 -3z m-3359 -37
c-10 -9 -11 -8 -5 6 3 10 9 15 12 12 3 -3 0 -11 -7 -18z m3276 -13 c-3 -3 -12
-4 -19 -1 -8 3 -5 6 6 6 11 1 17 -2 13 -5z m1753 -49 c0 -5 -5 -3 -10 5 -5 8
-10 20 -10 25 0 6 5 3 10 -5 5 -8 10 -19 10 -25z m-5130 -9 c0 -2 -7 -7 -16
-10 -8 -3 -12 -2 -9 4 6 10 25 14 25 6z m2375 -6 c-3 -5 -21 -9 -38 -9 l-32 2
35 7 c19 4 36 8 38 9 2 0 0 -3 -3 -9z m162 4 c-3 -3 -12 -4 -19 -1 -8 3 -5 6
6 6 11 1 17 -2 13 -5z m-387 -34 c-34 -11 -60 -11 -35 0 11 5 29 8 40 8 16 0
15 -2 -5 -8z m-2347 -17 c-7 -2 -19 -2 -25 0 -7 3 -2 5 12 5 14 0 19 -2 13 -5z
m44 1 c-3 -3 -12 -4 -19 -1 -8 3 -5 6 6 6 11 1 17 -2 13 -5z m1226 -14 c-3
-11 -7 -20 -9 -20 -2 0 -4 9 -4 20 0 11 4 20 9 20 5 0 7 -9 4 -20z m815 13
c-26 -2 -71 -2 -100 0 -29 2 -8 3 47 3 55 0 79 -1 53 -3z m109 1 c-3 -3 -12
-4 -19 -1 -8 3 -5 6 6 6 11 1 17 -2 13 -5z m3844 -37 c-10 -9 -11 -8 -5 6 3
10 9 15 12 12 3 -3 0 -11 -7 -18z m-487 -3 c3 -8 2 -12 -4 -9 -6 3 -10 10 -10
16 0 14 7 11 14 -7z m-155 -49 c0 -5 -4 -3 -9 5 -5 8 -9 22 -9 30 0 16 17 -16
18 -35z m39 14 c-6 -16 -12 -28 -14 -26 -5 5 13 57 20 57 3 0 0 -14 -6 -31z
m-2373 11 c3 -5 1 -10 -4 -10 -6 0 -11 5 -11 10 0 6 2 10 4 10 3 0 8 -4 11
-10z m122 -6 c-3 -3 -12 -4 -19 -1 -8 3 -5 6 6 6 11 1 17 -2 13 -5z m-292 -75
c-4 -5 -12 -9 -18 -8 -9 0 -8 2 1 6 6 2 9 10 6 15 -4 7 -2 8 5 4 6 -4 9 -12 6
-17z m3109 5 c3 -8 2 -12 -4 -9 -6 3 -10 10 -10 16 0 14 7 11 14 -7z m-3037 0
c-3 -3 -12 -4 -19 -1 -8 3 -5 6 6 6 11 1 17 -2 13 -5z m-170 -30 c-3 -3 -12
-4 -19 -1 -8 3 -5 6 6 6 11 1 17 -2 13 -5z m-360 -52 c8 -5 -2 -8 -25 -9 -28
0 -32 1 -17 7 26 11 28 11 42 2z m76 1 c-7 -2 -19 -2 -25 0 -7 3 -2 5 12 5 14
0 19 -2 13 -5z m3147 -40 c0 -6 -4 -14 -9 -17 -5 -4 -7 2 -4 13 3 10 0 22 -6
25 -6 4 -11 12 -11 19 0 14 29 -24 30 -40z m-3543 21 c-3 -3 -12 -4 -19 -1 -8
3 -5 6 6 6 11 1 17 -2 13 -5z m3373 -10 c0 -8 -4 -12 -10 -9 -5 3 -10 10 -10
16 0 5 5 9 10 9 6 0 10 -7 10 -16z m467 -6 c-3 -8 -6 -5 -6 6 -1 11 2 17 5 13
3 -3 4 -12 1 -19z m20 -33 c0 -8 -4 -12 -9 -9 -5 3 -6 10 -3 15 9 13 12 11 12
-6z m-303 -11 c3 -8 2 -12 -4 -9 -6 3 -10 10 -10 16 0 14 7 11 14 -7z m237
-37 c-10 -9 -11 -8 -5 6 3 10 9 15 12 12 3 -3 0 -11 -7 -18z m676 -59 c-3 -7
-5 -2 -5 12 0 14 2 19 5 13 2 -7 2 -19 0 -25z m-670 0 c-3 -8 -6 -5 -6 6 -1
11 2 17 5 13 3 -3 4 -12 1 -19z m-356 -11 c-10 -9 -11 -8 -5 6 3 10 9 15 12
12 3 -3 0 -11 -7 -18z m159 -51 c0 -26 -6 -18 -14 19 -5 22 -4 26 4 15 5 -8
10 -24 10 -34z m23 24 c3 -11 1 -18 -4 -14 -5 3 -9 12 -9 20 0 20 7 17 13 -6z
m874 -27 c-3 -10 -5 -2 -5 17 0 19 2 27 5 18 2 -10 2 -26 0 -35z m-1027 -18
c0 -5 -5 -3 -10 5 -5 8 -10 20 -10 25 0 6 5 3 10 -5 5 -8 10 -19 10 -25z m261
12 c-10 -9 -11 -8 -5 6 3 10 9 15 12 12 3 -3 0 -11 -7 -18z m21 -72 c-8 -16
-9 -16 -15 -1 -4 10 -3 15 3 11 6 -3 10 -1 10 6 0 7 3 10 6 6 3 -3 2 -13 -4
-22z m-81 -188 c-10 -9 -11 -8 -5 6 3 10 9 15 12 12 3 -3 0 -11 -7 -18z m1041
-22 c3 -13 1 -22 -3 -19 -9 5 -13 44 -5 44 2 0 6 -11 8 -25z m-1098 -21 c3 -8
2 -12 -4 -9 -6 3 -10 10 -10 16 0 14 7 11 14 -7z m580 8 c3 -5 -1 -9 -9 -9 -8
0 -12 4 -9 9 3 4 7 8 9 8 2 0 6 -4 9 -8z m413 2 c-3 -3 -12 -4 -19 -1 -8 3 -5
6 6 6 11 1 17 -2 13 -5z"/>
<path d="M6836 2591 c-103 -42 -165 -103 -218 -218 -40 -85 -50 -225 -23 -318
57 -197 200 -306 386 -293 170 13 298 146 330 347 31 190 -60 388 -216 469
-69 35 -188 41 -259 13z m229 -44 c147 -72 220 -284 169 -497 -18 -79 -50
-135 -105 -184 -57 -52 -102 -69 -179 -69 -118 1 -207 62 -262 180 -118 251 3
566 227 593 63 8 99 2 150 -23z"/>
<path d="M3622 2573 c2 -12 14 -19 38 -21 19 -2 41 -8 47 -14 18 -15 19 -688
1 -706 -7 -7 -29 -12 -50 -12 -31 0 -38 -4 -38 -20 0 -19 7 -20 219 -20 260 0
320 12 389 80 68 65 82 180 31 255 -25 37 -124 95 -163 95 -18 1 -16 3 9 16
66 35 107 70 126 105 49 98 -1 205 -114 243 -38 13 -93 16 -273 16 -209 0
-225 -1 -222 -17z m461 -34 c63 -17 99 -57 104 -115 13 -127 -93 -194 -304
-194 l-103 0 0 148 c0 102 4 152 12 160 15 15 237 16 291 1z m15 -374 c30 -9
70 -31 90 -50 36 -32 37 -36 37 -103 0 -56 -4 -76 -21 -99 -27 -36 -77 -70
-123 -83 -52 -14 -274 -13 -289 2 -13 13 -18 339 -4 353 12 12 252 -3 310 -20z"/>
<path d="M5540 2575 c0 -11 11 -15 39 -15 73 0 71 10 71 -375 0 -385 2 -375
-71 -375 -28 0 -39 -4 -39 -15 0 -13 21 -15 125 -15 104 0 125 2 125 15 0 10
-10 15 -31 15 -17 0 -39 5 -50 10 -18 10 -19 25 -19 358 1 302 3 342 14 312 8
-19 75 -186 149 -370 104 -260 139 -336 153 -338 16 -2 42 55 169 373 82 206
152 375 155 375 3 0 4 -143 3 -317 -2 -175 -3 -330 -3 -345 0 -38 -25 -58 -71
-58 -28 0 -39 -4 -39 -15 0 -13 22 -15 140 -15 118 0 140 2 140 15 0 11 -11
15 -39 15 -73 0 -71 -11 -71 380 0 335 1 350 19 360 11 5 36 10 55 10 26 0 36
4 36 15 0 13 -15 15 -97 13 l-98 -3 -139 -347 c-77 -191 -143 -345 -147 -343
-3 3 -68 160 -144 350 l-137 345 -99 0 c-81 0 -99 -3 -99 -15z"/>
<path d="M7390 2576 c0 -12 10 -16 35 -16 22 0 43 -8 55 -20 19 -19 20 -33 20
-359 0 -340 0 -340 -22 -355 -12 -9 -37 -16 -55 -16 -23 0 -33 -5 -33 -16 0
-14 25 -15 213 -12 209 3 213 3 269 31 69 34 120 89 162 177 30 63 31 70 31
195 -1 111 -4 138 -23 187 -34 85 -81 139 -153 179 l-64 34 -217 3 c-194 3
-218 2 -218 -12z m448 -46 c113 -49 165 -150 166 -320 1 -193 -54 -310 -173
-370 -60 -30 -209 -40 -246 -16 l-25 16 0 345 0 344 23 16 c34 25 185 16 255
-15z"/>
<path d="M8150 2575 c0 -10 10 -15 29 -15 16 0 39 -9 52 -19 l24 -19 3 -336
c3 -326 2 -336 -18 -356 -12 -12 -33 -20 -55 -20 -24 0 -35 -5 -35 -15 0 -13
40 -15 303 -15 l304 0 10 23 c60 126 81 177 74 182 -5 3 -32 -24 -60 -60 -75
-96 -106 -109 -269 -113 -73 -2 -143 -1 -156 2 -39 10 -47 48 -44 211 l3 150
124 -1 c142 -1 154 -7 167 -89 8 -53 24 -60 25 -10 3 164 -1 275 -10 275 -5 0
-11 -22 -15 -48 -11 -85 -16 -87 -163 -87 l-128 0 0 151 c0 203 -8 194 179
194 117 0 148 -4 183 -19 43 -20 83 -69 104 -128 6 -18 17 -33 25 -33 18 0 19
-4 -17 111 l-31 99 -304 0 c-264 0 -304 -2 -304 -15z"/>
<path d="M8910 2576 c0 -11 10 -16 33 -16 18 0 43 -7 55 -16 l22 -15 0 -343
c0 -385 2 -376 -73 -376 -26 0 -37 -4 -37 -15 0 -13 22 -15 141 -15 108 0 140
3 137 13 -3 6 -23 15 -47 18 -23 3 -47 11 -54 18 -8 8 -12 59 -12 174 l0 162
65 3 c35 2 74 1 85 -2 13 -4 56 -68 130 -196 l110 -190 77 0 c63 0 78 3 78 15
0 11 -11 15 -38 15 -21 0 -47 7 -59 15 -18 13 -193 287 -208 327 -4 10 12 18
63 30 83 19 142 55 177 105 20 31 25 50 25 101 0 70 -16 109 -57 142 -65 51
-82 54 -355 58 -231 3 -258 2 -258 -12z m500 -37 c78 -27 129 -105 115 -177
-21 -113 -140 -167 -355 -160 l-95 3 -3 135 c-4 163 2 198 31 211 29 12 263 4
307 -12z"/>
<path d="M9650 2575 c0 -10 10 -15 31 -15 17 0 39 -5 50 -10 18 -10 19 -25 19
-355 0 -332 -1 -346 -20 -365 -11 -11 -33 -20 -50 -20 -20 0 -30 -5 -30 -15 0
-12 20 -15 120 -15 100 0 120 3 120 15 0 10 -10 15 -30 15 -17 0 -39 9 -50 20
-19 19 -20 33 -20 352 0 193 4 328 9 323 11 -13 386 -582 435 -662 25 -41 45
-63 57 -63 18 0 19 16 19 380 0 365 1 380 19 390 11 5 33 10 50 10 21 0 31 5
31 15 0 13 -20 15 -120 15 -100 0 -120 -2 -120 -15 0 -10 10 -15 33 -15 70 0
68 11 65 -342 l-3 -318 -225 345 -225 345 -82 0 c-67 0 -83 -3 -83 -15z"/>
<path d="M2460 2473 c0 -107 -35 -173 -92 -173 -21 0 -28 -5 -28 -20 0 -17 7
-20 50 -20 l50 0 0 -189 c0 -104 3 -202 6 -218 10 -52 36 -75 91 -80 57 -6 92
9 137 56 26 27 27 31 12 37 -11 4 -27 -2 -44 -18 -55 -52 -110 -59 -132 -18
-6 11 -10 110 -10 224 l0 206 75 0 c69 0 75 2 75 21 0 18 -6 20 -47 19 -27 -1
-60 -1 -75 -1 l-27 1 -3 112 c-3 98 -5 113 -20 116 -16 3 -18 -5 -18 -55z"/>
<path d="M2915 2296 c-98 -45 -149 -136 -149 -261 0 -88 20 -145 69 -203 84
-100 265 -105 351 -10 66 72 92 210 61 319 -43 148 -196 219 -332 155z m158
-20 c75 -27 110 -83 123 -194 18 -167 -59 -292 -180 -292 -116 1 -178 79 -184
232 -6 142 33 221 124 253 49 18 69 18 117 1z"/>
<path d="M4532 2294 c-89 -44 -142 -140 -142 -258 0 -139 65 -239 175 -271 96
-28 158 -9 240 74 39 40 47 53 37 63 -10 10 -22 2 -57 -35 -61 -63 -97 -80
-156 -75 -87 9 -160 87 -179 191 -6 31 -8 62 -5 67 4 6 84 10 202 10 l196 0
-6 51 c-11 90 -69 166 -146 194 -62 21 -99 19 -159 -11z m174 -33 c36 -22 74
-93 74 -139 l0 -32 -166 0 -166 0 6 32 c10 48 54 117 89 139 42 25 121 25 163
0z"/>
<path d="M4890 1675 l0 -25 320 0 320 0 0 25 0 25 -320 0 -320 0 0 -25z"/>
</g>
</svg>
